# xmcd
#
# Track frame offsets:
#	150
#	11205
#	25031
#	35654
#	48792
#	61860
#	74917
#	85143
#	97584
#	110339
#	123338
#	135688
#
# Disc length: 2030 seconds
#
# Revision: 1
# Processed by: cddbd v1.5.2PL0 Copyright (c) Steve Scherf et al.
# Submitted via: audiograbber 1.83.01
#
DISCID=9907ec0c
DTITLE=Gene Stuart - Twilight Country
DYEAR=1900
DGENRE=
TTITLE0=It's Alright
TTITLE1=I Think Of Home
TTITLE2=Dark As A Dungeon
TTITLE3=One Thing Leads To Another
TTITLE4=Happy Country Birthday Darling
TTITLE5=Tonight Mary Ann
TTITLE6=Growin' Apart
TTITLE7=Then I'll Stop Lovin' You
TTITLE8=Gold Watch And Chain
TTITLE9=The Girl I Love
TTITLE10=Another Goodbye Song
TTITLE11=My Green Fields Are Calling
EXTD=
EXTT0=
EXTT1=
EXTT2=
EXTT3=
EXTT4=
EXTT5=
EXTT6=
EXTT7=
EXTT8=
EXTT9=
EXTT10=
EXTT11=
PLAYORDER=
